<?xml version="1.0" encoding="iso-8859-1"?>
<!-- Generator: Adobe Illustrator 19.1.0, SVG Export Plug-In . SVG Version: 6.00 Build 0)  -->
<svg version="1.1" id="Capa_1" xmlns="http://www.w3.org/2000/svg" xmlns:xlink="http://www.w3.org/1999/xlink" x="0px" y="0px"
	 viewBox="0 0 55 55" style="enable-background:new 0 0 55 55;" xml:space="preserve">
<g id="cart_1_">
	<g>
		<path d="M47,33.501l8-22H16l-3.135-7.002H0v4.002h10l11,25H47z M49,15.501l-5,14H24l-7-14H49z M25.987,37.524
			c-3.59,0-6.5,2.905-6.5,6.489c0,3.584,2.91,6.489,6.5,6.489c3.59,0,6.5-2.905,6.5-6.489
			C32.487,40.429,29.577,37.524,25.987,37.524z M25.987,46.509c-1.379,0-2.5-1.12-2.5-2.496c0-1.376,1.121-2.496,2.5-2.496
			c1.378,0,2.5,1.12,2.5,2.496C28.487,45.389,27.365,46.509,25.987,46.509z M42.988,37.524c-3.59,0-6.5,2.905-6.5,6.489
			c0,3.584,2.91,6.489,6.5,6.489c3.59,0,6.5-2.905,6.5-6.489C49.488,40.429,46.578,37.524,42.988,37.524z M42.988,46.509
			c-1.379,0-2.5-1.12-2.5-2.496c0-1.376,1.122-2.496,2.5-2.496c1.378,0,2.5,1.12,2.5,2.496
			C45.488,45.389,44.366,46.509,42.988,46.509z"/>
	</g>
</g>
<g>
</g>
<g>
</g>
<g>
</g>
<g>
</g>
<g>
</g>
<g>
</g>
<g>
</g>
<g>
</g>
<g>
</g>
<g>
</g>
<g>
</g>
<g>
</g>
<g>
</g>
<g>
</g>
<g>
</g>
</svg>
